<svg width="104" height="30" viewBox="0 0 104 30" fill="none" xmlns="http://www.w3.org/2000/svg">
<path d="M0 1C0 0.447716 0.447715 0 1 0H29C29.5523 0 30 0.447715 30 1V29C30 29.5523 29.5523 30 29 30H4C1.79086 30 0 28.2091 0 26V1Z" fill="white"/>
<rect width="30" height="4" fill="#4285F4"/>
<path d="M6 0L6 30L4 30C1.79086 30 1.97451e-07 28.2091 2.94015e-07 26L1.43051e-06 -2.62268e-07L6 0Z" fill="#4285F4"/>
<rect x="30" width="30" height="6" transform="rotate(90 30 0)" fill="#F4A937"/>
<path d="M0 24L30 24V30L4 30C1.79086 30 0 28.2091 0 26L0 24Z" fill="#34A853"/>
<rect x="24" width="6" height="4" fill="#1967D2"/>
<path d="M16.0425 10.2368C15.4517 10.2368 14.9194 10.3394 14.4458 10.5444C13.9771 10.7446 13.5767 11.0376 13.2446 11.4233C12.9175 11.8042 12.666 12.2656 12.4902 12.8076C12.3145 13.3496 12.2266 13.96 12.2266 14.6387C12.2266 15.5371 12.3657 16.3184 12.644 16.9824C12.9272 17.6416 13.3472 18.1519 13.9038 18.5132C14.4653 18.8745 15.166 19.0552 16.0059 19.0552C16.4844 19.0552 16.9336 19.0161 17.3535 18.938C17.7783 18.855 18.1909 18.7524 18.5913 18.6304V19.7144C18.2007 19.8608 17.7905 19.9683 17.3608 20.0366C16.9312 20.1099 16.4209 20.1465 15.8301 20.1465C14.7412 20.1465 13.8306 19.9219 13.0981 19.4727C12.3706 19.0186 11.8237 18.3789 11.4575 17.5537C11.0962 16.7285 10.9155 15.7544 10.9155 14.6313C10.9155 13.8208 11.0278 13.0811 11.2524 12.4121C11.4819 11.7383 11.814 11.1572 12.2485 10.6689C12.688 10.1807 13.2251 9.80469 13.8599 9.54102C14.4995 9.27246 15.2319 9.13818 16.0571 9.13818C16.5991 9.13818 17.1216 9.19189 17.6245 9.29932C18.1274 9.40674 18.5815 9.56055 18.9868 9.76074L18.4888 10.8154C18.147 10.6592 17.771 10.5249 17.3608 10.4126C16.9556 10.2954 16.5161 10.2368 16.0425 10.2368Z" fill="#4E8CF4"/>
<rect x="24" y="24" width="6" height="6" fill="#F72A25"/>
<path d="M0 24H6V30H4C1.79086 30 0 28.2091 0 26V24Z" fill="#188038"/>
<path d="M42.4453 9.58594C41.8151 9.58594 41.2474 9.69531 40.7422 9.91406C40.2422 10.1276 39.8151 10.4401 39.4609 10.8516C39.112 11.2578 38.8438 11.75 38.6562 12.3281C38.4688 12.9062 38.375 13.5573 38.375 14.2812C38.375 15.2396 38.5234 16.0729 38.8203 16.7812C39.1224 17.4844 39.5703 18.0286 40.1641 18.4141C40.763 18.7995 41.5104 18.9922 42.4062 18.9922C42.9167 18.9922 43.3958 18.9505 43.8438 18.8672C44.2969 18.7786 44.737 18.6693 45.1641 18.5391V19.6953C44.7474 19.8516 44.3099 19.9661 43.8516 20.0391C43.3932 20.1172 42.849 20.1562 42.2188 20.1562C41.0573 20.1562 40.0859 19.9167 39.3047 19.4375C38.5286 18.9531 37.9453 18.2708 37.5547 17.3906C37.1693 16.5104 36.9766 15.4714 36.9766 14.2734C36.9766 13.4089 37.0964 12.6198 37.3359 11.9062C37.5807 11.1875 37.9349 10.5677 38.3984 10.0469C38.8672 9.52604 39.4401 9.125 40.1172 8.84375C40.7995 8.55729 41.5807 8.41406 42.4609 8.41406C43.0391 8.41406 43.5964 8.47135 44.1328 8.58594C44.6693 8.70052 45.1536 8.86458 45.5859 9.07812L45.0547 10.2031C44.6901 10.0365 44.2891 9.89323 43.8516 9.77344C43.4193 9.64844 42.9505 9.58594 42.4453 9.58594ZM50.6484 11.2969C51.6693 11.2969 52.4271 11.526 52.9219 11.9844C53.4167 12.4427 53.6641 13.1745 53.6641 14.1797V20H52.7188L52.4688 18.7344H52.4062C52.1667 19.0469 51.9167 19.3099 51.6562 19.5234C51.3958 19.7318 51.0938 19.8906 50.75 20C50.4115 20.1042 49.9948 20.1562 49.5 20.1562C48.9792 20.1562 48.5156 20.0651 48.1094 19.8828C47.7083 19.7005 47.3906 19.4245 47.1562 19.0547C46.9271 18.6849 46.8125 18.2161 46.8125 17.6484C46.8125 16.7943 47.151 16.138 47.8281 15.6797C48.5052 15.2214 49.5365 14.9714 50.9219 14.9297L52.3984 14.8672V14.3438C52.3984 13.6042 52.2396 13.0859 51.9219 12.7891C51.6042 12.4922 51.1562 12.3438 50.5781 12.3438C50.1302 12.3438 49.7031 12.4089 49.2969 12.5391C48.8906 12.6693 48.5052 12.8229 48.1406 13L47.7422 12.0156C48.1276 11.8177 48.5703 11.6484 49.0703 11.5078C49.5703 11.3672 50.0964 11.2969 50.6484 11.2969ZM52.3828 15.7812L51.0781 15.8359C50.0104 15.8776 49.2578 16.0521 48.8203 16.3594C48.3828 16.6667 48.1641 17.1016 48.1641 17.6641C48.1641 18.1536 48.3125 18.5156 48.6094 18.75C48.9062 18.9844 49.2995 19.1016 49.7891 19.1016C50.5495 19.1016 51.1719 18.8906 51.6562 18.4688C52.1406 18.0469 52.3828 17.4141 52.3828 16.5703V15.7812ZM57.6406 20H56.3359V7.84375H57.6406V20ZM63.6797 11.2812C64.4089 11.2812 65.0339 11.4427 65.5547 11.7656C66.0755 12.0885 66.474 12.5417 66.75 13.125C67.026 13.7031 67.1641 14.3802 67.1641 15.1562V15.9609H61.25C61.2656 16.9661 61.5156 17.7318 62 18.2578C62.4844 18.7839 63.1667 19.0469 64.0469 19.0469C64.5885 19.0469 65.0677 18.9974 65.4844 18.8984C65.901 18.7995 66.3333 18.6536 66.7812 18.4609V19.6016C66.349 19.7943 65.9193 19.9349 65.4922 20.0234C65.0703 20.112 64.5703 20.1562 63.9922 20.1562C63.1693 20.1562 62.4505 19.9896 61.8359 19.6562C61.2266 19.3177 60.7526 18.8229 60.4141 18.1719C60.0755 17.5208 59.9062 16.724 59.9062 15.7812C59.9062 14.8594 60.0599 14.0625 60.3672 13.3906C60.6797 12.7135 61.1172 12.1927 61.6797 11.8281C62.2474 11.4635 62.9141 11.2812 63.6797 11.2812ZM63.6641 12.3438C62.9714 12.3438 62.4193 12.5703 62.0078 13.0234C61.5964 13.4766 61.3516 14.1094 61.2734 14.9219H65.8047C65.7995 14.4115 65.7188 13.9635 65.5625 13.5781C65.4115 13.1875 65.1797 12.8854 64.8672 12.6719C64.5547 12.4531 64.1536 12.3438 63.6641 12.3438ZM73.4219 11.2812C74.4375 11.2812 75.2057 11.5312 75.7266 12.0312C76.2474 12.526 76.5078 13.3229 76.5078 14.4219V20H75.2266V14.5078C75.2266 13.7943 75.0625 13.2604 74.7344 12.9062C74.4115 12.5521 73.9141 12.375 73.2422 12.375C72.2943 12.375 71.6276 12.6432 71.2422 13.1797C70.8568 13.7161 70.6641 14.4948 70.6641 15.5156V20H69.3672V11.4375H70.4141L70.6094 12.6719H70.6797C70.862 12.3698 71.0938 12.1172 71.375 11.9141C71.6562 11.7057 71.9714 11.5495 72.3203 11.4453C72.6693 11.3359 73.0365 11.2812 73.4219 11.2812ZM82.2266 20.1562C81.1432 20.1562 80.2839 19.7865 79.6484 19.0469C79.0182 18.3073 78.7031 17.2083 78.7031 15.75C78.7031 14.276 79.026 13.1641 79.6719 12.4141C80.3177 11.6589 81.1771 11.2812 82.25 11.2812C82.7031 11.2812 83.099 11.3411 83.4375 11.4609C83.776 11.5807 84.0677 11.7422 84.3125 11.9453C84.5573 12.1432 84.763 12.3698 84.9297 12.625H85.0234C85.0026 12.4635 84.9818 12.2422 84.9609 11.9609C84.9401 11.6797 84.9297 11.4505 84.9297 11.2734V7.84375H86.2266V20H85.1797L84.9844 18.7812H84.9297C84.7682 19.0365 84.5625 19.2682 84.3125 19.4766C84.0677 19.6849 83.7734 19.8516 83.4297 19.9766C83.0911 20.0964 82.6901 20.1562 82.2266 20.1562ZM82.4297 19.0781C83.3464 19.0781 83.9948 18.8177 84.375 18.2969C84.7552 17.776 84.9453 17.0026 84.9453 15.9766V15.7422C84.9453 14.6536 84.763 13.8177 84.3984 13.2344C84.0391 12.651 83.3828 12.3594 82.4297 12.3594C81.6328 12.3594 81.0365 12.6667 80.6406 13.2812C80.2448 13.8906 80.0469 14.724 80.0469 15.7812C80.0469 16.8333 80.2422 17.6458 80.6328 18.2188C81.0286 18.7917 81.6276 19.0781 82.4297 19.0781ZM92.1797 11.2969C93.2005 11.2969 93.9583 11.526 94.4531 11.9844C94.9479 12.4427 95.1953 13.1745 95.1953 14.1797V20H94.25L94 18.7344H93.9375C93.6979 19.0469 93.4479 19.3099 93.1875 19.5234C92.9271 19.7318 92.625 19.8906 92.2812 20C91.9427 20.1042 91.526 20.1562 91.0312 20.1562C90.5104 20.1562 90.0469 20.0651 89.6406 19.8828C89.2396 19.7005 88.9219 19.4245 88.6875 19.0547C88.4583 18.6849 88.3438 18.2161 88.3438 17.6484C88.3438 16.7943 88.6823 16.138 89.3594 15.6797C90.0365 15.2214 91.0677 14.9714 92.4531 14.9297L93.9297 14.8672V14.3438C93.9297 13.6042 93.7708 13.0859 93.4531 12.7891C93.1354 12.4922 92.6875 12.3438 92.1094 12.3438C91.6615 12.3438 91.2344 12.4089 90.8281 12.5391C90.4219 12.6693 90.0365 12.8229 89.6719 13L89.2734 12.0156C89.6589 11.8177 90.1016 11.6484 90.6016 11.5078C91.1016 11.3672 91.6276 11.2969 92.1797 11.2969ZM93.9141 15.7812L92.6094 15.8359C91.5417 15.8776 90.7891 16.0521 90.3516 16.3594C89.9141 16.6667 89.6953 17.1016 89.6953 17.6641C89.6953 18.1536 89.8438 18.5156 90.1406 18.75C90.4375 18.9844 90.8307 19.1016 91.3203 19.1016C92.0807 19.1016 92.7031 18.8906 93.1875 18.4688C93.6719 18.0469 93.9141 17.4141 93.9141 16.5703V15.7812ZM101.758 11.2812C101.93 11.2812 102.109 11.2917 102.297 11.3125C102.484 11.3281 102.651 11.3516 102.797 11.3828L102.633 12.5859C102.492 12.5495 102.336 12.5208 102.164 12.5C101.992 12.4792 101.831 12.4688 101.68 12.4688C101.336 12.4688 101.01 12.5391 100.703 12.6797C100.401 12.8151 100.135 13.013 99.9062 13.2734C99.6771 13.5286 99.4974 13.8385 99.3672 14.2031C99.237 14.5625 99.1719 14.9635 99.1719 15.4062V20H97.8672V11.4375H98.9453L99.0859 13.0156H99.1406C99.3177 12.6979 99.5312 12.4089 99.7812 12.1484C100.031 11.8828 100.32 11.6719 100.648 11.5156C100.982 11.3594 101.352 11.2812 101.758 11.2812Z" fill="white"/>
</svg>
